<svg id="Layer_1" height="512" viewBox="0 0 512 512" width="512" xmlns="http://www.w3.org/2000/svg" data-name="Layer 1"><path d="m182.05 321.92.028.08h.042z" fill="#d4e1f4"/><path d="m145.04 72.623c-34.25 47.577-42.33 109.189-22.86 164.477l29.87 84.874.022.008 14.128 40.018h30l-14.122-40h-.039l-29.859-84.845c-19.47-55.29-11.39-116.928 22.86-164.508 14.5-20.148 32.527-36.331 52.88-47.044 8.627-9.391 18.116-14.6 28.08-14.6-44.12.004-83.75 23.81-110.96 61.62z" fill="#d4e1f4"/><path d="m187.148 507h137.7a16.048 16.048 0 0 0 6.478-30.734v-54.227a9.842 9.842 0 0 0 -9.83-9.831h-1.619l13.622-48.47-11.553-3.247-14.534 51.717h-45.412v-50.093h-12v50.093h-45.416l-14.534-51.717-11.55 3.247 13.622 48.47h-1.622a9.842 9.842 0 0 0 -9.83 9.831v54.227a16.048 16.048 0 0 0 6.478 30.734zm137.7-12h-137.7a4.056 4.056 0 0 1 0-8.111h137.7a4.056 4.056 0 0 1 0 8.111zm-5.522-50.087h-126.656v-20.7h126.66zm0 12v17.976h-126.656v-17.976z" fill="#1ae5be"/><g fill="#0635c9"><path d="m160.542 364.108a6 6 0 0 0 5.659 4.007h179.599a6 6 0 0 0 5.659-4.007l44.024-125.018c20.3-57.652 11.461-121.192-23.649-169.97-29.334-40.749-71.552-64.12-115.834-64.12s-86.5 23.371-115.834 64.12c-35.11 48.778-43.952 112.318-23.649 169.97zm181.009-7.993h-171.1l-9.937-28.22h190.974zm20.543-279.985c32.819 45.594 41.07 105.023 22.071 158.974l-28.45 80.796h-42.338l13.245-77.8c9.663-56.755 5.439-119.354-11.3-167.451-7.4-21.256-16.393-37.713-26.492-48.836 28.002 8.312 53.68 27.11 73.264 54.317zm-212.189 0c19.585-27.207 45.263-46 73.267-54.313-10.1 11.123-19.094 27.58-26.492 48.836-2.611 7.5-4.91 15.355-6.905 23.484a5.986 5.986 0 0 0 5.826 7.388h.013a5.97 5.97 0 0 0 5.8-4.528c1.907-7.755 4.106-15.247 6.6-22.4 12.739-36.604 30.23-57.597 47.986-57.597s35.247 20.993 47.986 57.6c16.106 46.272 20.145 106.643 10.806 161.492l-13.592 79.808h-90.4l-13.589-79.806a362.277 362.277 0 0 1 -2.924-97.936 5.987 5.987 0 1 0 -11.907-1.261 374.487 374.487 0 0 0 3 101.212l13.243 77.791h-42.338l-28.45-80.8c-18.999-53.947-10.748-113.376 22.07-158.97z"/><path d="m135.792 182.42a6 6 0 0 0 6-6c0-1.852.031-3.729.091-5.578a6 6 0 1 0 -11.994-.384c-.064 1.975-.1 3.978-.1 5.956a6 6 0 0 0 6.003 6.006z"/><path d="m136.057 187.912a6 6 0 0 0 -5.4 6.546 188.963 188.963 0 0 0 9.859 44.631l7.03 19.965a6 6 0 1 0 11.318-3.985l-7.03-19.965a176.934 176.934 0 0 1 -9.234-41.794 6 6 0 0 0 -6.543-5.398z"/></g></svg>