<svg id="Line" height="512" viewBox="0 0 36 36" width="512" xmlns="http://www.w3.org/2000/svg"><path d="m3.442 23.883c6.061 3.333 8.497 8.761 11.417 10.367 2.921 1.606 9.978 3.299 17.366-10.137s.221-19.945-2.992-21.712c-15.042-8.27-36.525 15.58-25.791 21.482z" fill="#efefef"/><path d="m32.151 5.421c-.827 0-1.5-.673-1.5-1.5s.673-1.5 1.5-1.5 1.5.673 1.5 1.5-.672 1.5-1.5 1.5zm0-2c-.276 0-.5.224-.5.5s.224.5.5.5.5-.224.5-.5-.224-.5-.5-.5z" fill="#a4afc1"/><g fill="#f3f3f1"><circle cx="26.5" cy="26.5" r="2.75"/><circle cx="11.5" cy="24.5" r="4.75"/><path d="m11.23 26.4 3.27-9.65h13.75c.552 0 1 .448 1 1v8.75z"/></g><path d="m23.25 16.75h-8.75l1.772-5.316c.136-.408.518-.684.949-.684h5.029c.552 0 1 .448 1 1z" fill="#2fdf84"/><path d="m27.5 29.06c-.31.12-.65.19-1 .19-1.52 0-2.75-1.23-2.75-2.75s1.23-2.75 2.75-2.75c.35 0 .69.07 1 .19-1.03.4-1.75 1.39-1.75 2.56s.72 2.16 1.75 2.56z" fill="#d5dbe1"/><path d="m12.5 29.14c-.32.07-.66.11-1 .11-2.62 0-4.75-2.13-4.75-4.75s2.13-4.75 4.75-4.75c.34 0 .68.04 1 .11-2.14.45-3.75 2.36-3.75 4.64s1.61 4.19 3.75 4.64z" fill="#d5dbe1"/><path d="m16.5 16.75-1.53 4.51c-.4-.54-1-.96-1.57-1.27l1.1-3.24z" fill="#d5dbe1"/><path d="m19.22 10.75c-.43 0-.81.28-.95.68l-1.77 5.32h-2l1.77-5.32c.14-.4.52-.68.95-.68z" fill="#00b871"/><path d="m26.5 30c-1.93 0-3.5-1.57-3.5-3.5s1.57-3.5 3.5-3.5 3.5 1.57 3.5 3.5-1.57 3.5-3.5 3.5zm0-5.5c-1.103 0-2 .897-2 2s.897 2 2 2 2-.897 2-2-.897-2-2-2z"/><path d="m11.5 30c-3.033 0-5.5-2.467-5.5-5.5s2.467-5.5 5.5-5.5 5.5 2.467 5.5 5.5-2.467 5.5-5.5 5.5zm0-9.5c-2.206 0-4 1.794-4 4s1.794 4 4 4 4-1.794 4-4-1.794-4-4-4z"/><path d="m16.09 25.5h7.41v1.5h-7.41z"/><path d="m30 26.5h-1.5v-8.75c0-.138-.112-.25-.25-.25h-13.205l-.852 2.631-1.427-.462 1.02-3.15c.101-.31.389-.519.714-.519h13.75c.965 0 1.75.785 1.75 1.75z"/><path d="m23.25 17.5h-8.75c-.241 0-.467-.116-.608-.312-.141-.195-.179-.447-.103-.676l1.772-5.316c.238-.716.905-1.196 1.66-1.196h5.029c.965 0 1.75.785 1.75 1.75v5c0 .414-.336.75-.75.75zm-7.709-1.5h6.959v-4.25c0-.138-.112-.25-.25-.25h-5.029c-.108 0-.203.069-.237.171z"/><path d="m6.5 23.75h10v1.5h-10z"/></svg>