<svg id="Capa_1" enable-background="new 0 0 512 512" height="512" viewBox="0 0 512 512" width="512" xmlns="http://www.w3.org/2000/svg"><g><g><path d="m484.294 375.293h-456.588c-11.159 0-20.206 9.047-20.206 20.206 0 11.159 9.046 20.206 20.206 20.206h456.588c11.159 0 20.206-9.047 20.206-20.206 0-11.159-9.046-20.206-20.206-20.206z" fill="#ffd064"/><path d="m102.3 409.789c3.66 3.65 8.71 5.91 14.29 5.91h-88.88c-5.58 0-10.63-2.26-14.29-5.91-3.66-3.66-5.92-8.71-5.92-14.29 0-11.16 9.05-20.21 20.21-20.21h88.88c-11.16 0-20.21 9.05-20.21 20.21 0 5.58 2.26 10.63 5.92 14.29z" fill="#ffc250"/><path d="m56.716 352.826-38.047-94.441c-6.045-15.004-1.298-32.198 11.59-41.975l62.447-47.378c6.236-4.732 13.85-7.293 21.678-7.293h71.307c11.898 0 23.021-5.9 29.694-15.75l22.996-33.945c6.673-9.85 17.796-15.75 29.694-15.75h125.632c13.085 0 25.132 7.126 31.433 18.594l64.25 116.928c4.932 8.976 5.792 19.632 2.362 29.283l-32.105 90.335c-5.083 14.301-18.617 23.855-33.795 23.855h-335.869c-14.633 0-27.799-8.89-33.267-22.463z" fill="#dedede"/><path d="m110.943 258.391 38.04 94.434c5.472 13.581 18.638 22.464 33.266 22.464h-92.266c-14.627 0-27.794-8.883-33.266-22.464l-38.04-94.434c-6.049-15.009-1.297-32.197 11.586-41.974" fill="#cacaca"/><path d="m215.381 145.99-32.96 94.892c-7.761 22.344-30.225 36.089-53.648 32.83l-110.098-15.325c-6.049-15.009-1.297-32.197 11.586-41.974l62.444-47.381c6.235-4.73 13.853-7.292 21.679-7.292h71.305c11.904 0 23.021-5.897 29.692-15.75z" fill="#e9e9e9"/><path d="m491.749 261.105-32.11 90.336c-5.079 14.3-18.617 23.848-33.789 23.848h-113.662l-8.48-64.722c-2.485-18.944 9.733-36.688 28.317-41.135l157.358-37.615c4.938 8.982 5.799 19.642 2.366 29.288z" fill="#e9e9e9"/><path d="m245.065 354.574 6.528-16.411c2.063-5.186 6.814-8.814 12.36-9.439l82.964-9.351c6.37-.718 12.5 2.657 15.3 8.424l12.508 25.762c4.877 10.045-2.439 21.731-13.606 21.731h-102c-10.688-.001-18.004-10.785-14.054-20.716z" fill="#dedede"/><path d="m297.795 375.284h-38.67c-10.69 0-18.01-10.78-14.06-20.71l6.53-16.41c2.07-5.19 6.82-8.82 12.36-9.44l30.08-3.39c-2.16 1.82-3.88 4.17-4.97 6.9l-7.57 19.03c-4.58 11.52 3.91 24.02 16.3 24.02z" fill="#cacaca"/></g><path d="m503.883 375.906c-5.234-5.234-12.192-8.116-19.593-8.116h-25.666c3.469-4 6.242-8.666 8.082-13.848l32.111-90.33c4.144-11.66 3.104-24.565-2.854-35.403l-32.06-58.35c-1.994-3.63-6.553-4.957-10.185-2.962-3.631 1.995-4.956 6.554-2.962 10.185l27.324 49.73-147.805 35.324c-22.384 5.352-37.001 26.591-34.002 49.401l.776 5.909-33.936 3.825c-8.313.937-15.397 6.347-18.489 14.12l-6.528 16.411c-2.062 5.184-2.113 10.862-.276 15.988h-147.84c-11.637 0-21.961-6.971-26.303-17.763l-33.211-82.428 97.269 13.537c2.626.365 5.241.543 7.836.543 23.955 0 45.891-15.2 53.928-38.332l32.65-93.977 22.441-33.126c5.281-7.799 14.059-12.455 23.48-12.455h125.63c10.354 0 19.882 5.637 24.866 14.711l17.74 32.29c1.994 3.63 6.555 4.957 10.185 2.962 3.631-1.994 4.956-6.554 2.962-10.185l-17.74-32.289c-7.618-13.871-22.185-22.488-38.013-22.488h-125.63c-14.405 0-27.826 7.12-35.9 19.043l-23.001 33.951c-5.281 7.799-14.058 12.455-23.479 12.455h-71.31c-9.41 0-18.717 3.131-26.203 8.815l-62.45 47.38c-15.543 11.793-21.305 32.666-14.013 50.758l38.049 94.437c1.822 4.527 4.336 8.612 7.388 12.16h-29.441c-15.279.001-27.71 12.432-27.71 27.711 0 7.401 2.882 14.359 8.117 19.594 5.234 5.234 12.193 8.116 19.593 8.116h73.88c4.142 0 7.5-3.358 7.5-7.5s-3.358-7.5-7.5-7.5h-73.88c-3.394 0-6.586-1.322-8.987-3.723s-3.723-5.593-3.723-8.987c0-7.008 5.702-12.71 12.71-12.71h456.58c3.395 0 6.586 1.322 8.986 3.723 2.401 2.401 3.724 5.593 3.724 8.987 0 7.008-5.702 12.71-12.71 12.71h-352.7c-4.142 0-7.5 3.358-7.5 7.5s3.358 7.5 7.5 7.5h352.7c15.279 0 27.71-12.431 27.71-27.71 0-7.401-2.883-14.359-8.117-19.594zm-469.09-153.521 62.452-47.381c4.896-3.717 10.98-5.763 17.135-5.763h71.31c5.037 0 9.946-.888 14.555-2.53l-24.916 71.715c-6.566 18.898-25.714 30.613-45.527 27.854l-105.43-14.673c-2.587-10.801 1.377-22.36 10.421-29.222zm217.241 134.961 6.529-16.411c1.042-2.619 3.429-4.442 6.23-4.758l82.964-9.351c3.196-.361 6.305 1.345 7.713 4.246l12.508 25.762c1.172 2.414 1.027 5.102-.396 7.376s-3.779 3.579-6.463 3.579h-102c-2.568 0-4.867-1.219-6.309-3.344-1.443-2.125-1.726-4.712-.776-7.099zm130.383 10.444c2.044-5.666 1.759-11.936-.946-17.507l-12.508-25.762c-4.181-8.608-13.382-13.67-22.887-12.601l-34.119 3.846-.812-6.183c-1.994-15.172 7.729-29.298 22.617-32.858l151.244-36.146c1.833 5.831 1.756 12.158-.323 18.009l-32.111 90.333c-4.007 11.286-14.746 18.869-26.723 18.869z"/></g></svg>